<svg width="112" height="34" viewBox="0 0 112 34" fill="none" xmlns="http://www.w3.org/2000/svg">
<path fill-rule="evenodd" clip-rule="evenodd" d="M46.6417 13.5773C47.8988 13.5773 49.1286 13.8293 50.2739 14.3336L52.5646 13.7727H52.8715V26.9397C52.8715 31.5061 51.4743 33.4951 46.1107 33.7753L41.5295 34L41.3902 30.5822L45.6918 30.3301C48.0104 30.1901 48.8485 29.1528 48.8485 27.0237V25.3432C47.6194 26.5197 46.2786 26.9397 44.6025 26.9397C41.6414 26.9397 39.0158 24.6707 39.0158 20.5526C39.0158 16.6587 41.6973 13.5774 46.6417 13.5773ZM46.9496 16.9384C44.5192 16.9384 43.2053 18.4799 43.2053 20.2448C43.2055 22.4016 44.4628 23.6058 46.3621 23.606C47.1722 23.606 47.9546 23.3537 48.8485 22.7373V17.4153C48.1504 17.0512 47.564 16.9385 46.9496 16.9384Z" fill="#5A5CF5"/>
<path d="M9.68714 1.00931C10.0151 0.964052 10.3447 1.0857 10.566 1.33272C10.8212 1.61805 10.8212 2.292 10.8212 3.63958V10.6754C10.8212 10.8696 10.8189 11.0301 10.8144 11.1659V15.9584C12.8535 14.2778 14.3059 13.6332 15.8701 13.633C18.5239 13.633 19.6981 15.1458 19.6982 18.1432V27.3042H15.647V18.8994C15.6469 17.9473 15.2839 17.4711 14.3346 17.4709C13.5245 17.4709 12.4067 18.1436 10.8144 19.4603V27.3042H6.76324V12.2759H3.28885C2.19241 12.2759 1.64331 12.2759 1.36849 12.0521C1.12999 11.8577 0.994087 11.564 1.0002 11.2558C1.0074 10.9009 1.36181 10.481 2.06999 9.6417L8.00646 2.60584C8.87454 1.57703 9.30852 1.06182 9.68714 1.00931Z" fill="#5A5CF5"/>
<path d="M32.1917 23.8864H36.6063V27.3042H23.7835V23.8864H28.1415V17.3586H24.3417V13.9408H32.1917V23.8864Z" fill="#5A5CF5"/>
<path d="M60.6172 15.9584C62.6563 14.2778 64.1086 13.6331 65.6729 13.633C68.3267 13.633 69.4999 15.1458 69.5 18.1432V27.3042H65.4498V18.8994C65.4497 17.9472 65.0861 17.4709 64.1364 17.4709C63.3263 17.4711 62.2093 18.1438 60.6172 19.4603V27.3042H56.566V7.41399H60.6172V15.9584Z" fill="#5A5CF5"/>
<path d="M30.1252 6.26496C31.9967 6.26507 33.0296 7.10603 33.0296 8.70274C33.0295 10.2434 31.8847 11.1122 30.097 11.1122C28.2813 11.1122 27.2199 10.2714 27.2198 8.70274C27.2198 7.274 28.3094 6.26496 30.1252 6.26496Z" fill="#5A5CF5"/>
<path d="M96.5384 20.5542C96.5384 16.6606 99.2407 13.5793 104.223 13.5793C105.49 13.5793 106.728 13.8314 107.882 14.3356L110.19 13.7753H110.5V26.941C110.5 31.5069 109.093 33.4958 103.688 33.7759L99.0718 34L98.931 30.5825L103.266 30.3304C105.602 30.1904 106.447 29.1539 106.447 27.025V25.3443C105.208 26.5208 103.857 26.941 102.168 26.941C99.1844 26.941 96.5384 24.672 96.5384 20.5542ZM100.761 20.2461C100.761 22.403 102.027 23.6076 103.941 23.6076C104.758 23.6076 105.546 23.3554 106.447 22.7392V17.4169C105.743 17.0527 105.152 16.9407 104.533 16.9407C102.084 16.9407 100.761 18.4814 100.761 20.2461Z" fill="#030536"/>
<path d="M87.1573 27.7256C82.9069 27.7256 79.895 24.8684 79.895 20.6386C79.895 16.5489 82.9351 13.5236 87.2699 13.5236C91.5203 13.5236 94.5322 16.4088 94.5322 20.6106C94.5322 24.7284 91.4922 27.7256 87.1573 27.7256ZM87.2136 24.3642C89.0995 24.3642 90.3099 23.2437 90.3099 20.6386C90.3099 18.1456 89.184 16.885 87.2136 16.885C85.3558 16.885 84.1173 18.0055 84.1173 20.6106C84.1173 23.1317 85.2432 24.3642 87.2136 24.3642Z" fill="#030536"/>
<path d="M77.5683 27.3053H73.5V7.5H77.5683V27.3053Z" fill="#030536"/>
</svg>
