<svg width="150" height="99" viewBox="0 0 150 99" fill="none" xmlns="http://www.w3.org/2000/svg">
<g filter="url(#filter0_d_1448_8832)">
<path d="M115.856 18.067C129.162 25.0474 139.58 36.4974 145.276 50.4022C150.973 64.3069 151.582 79.7753 146.997 94.085C142.412 108.395 132.927 120.629 120.211 128.634C107.495 136.64 92.3627 139.904 77.4773 137.852L79.6595 122.023C90.8195 123.561 102.165 121.114 111.698 115.112C121.232 109.11 128.343 99.938 131.78 89.2096C135.218 78.4812 134.761 66.8842 130.49 56.4595C126.22 46.0347 118.409 37.4503 108.433 32.2169L115.856 18.067Z" fill="#6F84E1"/>
<path d="M77.4773 137.852C63.719 135.955 50.9545 129.624 41.1192 119.818C31.2839 110.012 24.9143 97.2663 22.9764 83.5138L38.7815 81.2866C40.2349 91.6009 45.0121 101.16 52.3886 108.514C59.765 115.869 69.3384 120.617 79.6571 122.04L77.4773 137.852Z" fill="#6F84E1" fill-opacity="0.3"/>
<path d="M22.9764 83.5138C21.3373 71.8825 22.9388 60.0244 27.6046 49.2446C32.2704 38.4648 39.8196 29.1811 49.4215 22.4152C59.0234 15.6493 70.3057 11.6634 82.0269 10.8963C93.748 10.1291 105.454 12.6104 115.856 18.067L108.441 32.2015C100.639 28.109 91.8602 26.248 83.0693 26.8234C74.2785 27.3988 65.8167 30.3882 58.6153 35.4626C51.4139 40.5371 45.752 47.4998 42.2526 55.5847C38.7533 63.6695 37.5522 72.5631 38.7815 81.2866L22.9764 83.5138Z" fill="#6F84E1" fill-opacity="0.75"/>
</g>
<defs>
<filter id="filter0_d_1448_8832" x="20.3518" y="10.7598" width="131.69" height="131.69" filterUnits="userSpaceOnUse" color-interpolation-filters="sRGB">
<feFlood flood-opacity="0" result="BackgroundImageFix"/>
<feColorMatrix in="SourceAlpha" type="matrix" values="0 0 0 0 0 0 0 0 0 0 0 0 0 0 0 0 0 0 127 0" result="hardAlpha"/>
<feOffset dy="2"/>
<feGaussianBlur stdDeviation="1"/>
<feComposite in2="hardAlpha" operator="out"/>
<feColorMatrix type="matrix" values="0 0 0 0 0 0 0 0 0 0 0 0 0 0 0 0 0 0 0.25 0"/>
<feBlend mode="normal" in2="BackgroundImageFix" result="effect1_dropShadow_1448_8832"/>
<feBlend mode="normal" in="SourceGraphic" in2="effect1_dropShadow_1448_8832" result="shape"/>
</filter>
</defs>
</svg>
