<svg width="144" height="99" viewBox="0 0 144 99" fill="none" xmlns="http://www.w3.org/2000/svg">
<g filter="url(#filter0_d_1448_8827)">
<path d="M23.5905 103.804C18.0384 89.8411 17.5891 74.3673 22.3216 60.1057C27.0542 45.8441 36.6653 33.7088 49.4636 25.8353C62.2619 17.9617 77.4271 14.8546 92.2906 17.0606C107.154 19.2667 120.763 26.6445 130.723 37.8958L118.758 48.4869C111.291 40.0515 101.088 34.5201 89.9447 32.8662C78.8012 31.2122 67.4314 33.5418 57.8362 39.4448C48.2409 45.3478 41.0352 54.446 37.4871 65.1382C33.939 75.8305 34.2759 87.4316 38.4384 97.9L23.5905 103.804Z" fill="#6F84E1"/>
<path d="M130.723 37.8958C139.928 48.2951 145.492 61.4126 146.57 75.2591C147.648 89.1056 144.181 102.926 136.695 114.624L123.251 106.022C128.865 97.2479 131.465 86.8826 130.657 76.4978C129.848 66.1129 125.676 56.2748 118.772 48.4753L130.723 37.8958Z" fill="#6F84E1" fill-opacity="0.3"/>
<path d="M136.695 114.624C130.365 124.519 121.427 132.474 110.866 137.616C100.305 142.758 88.5301 144.887 76.8372 143.769C65.1444 142.65 53.9868 138.327 44.5923 131.276C35.1978 124.225 27.9306 114.719 23.5905 103.804L38.4222 97.9064C41.6773 106.093 47.1277 113.222 54.1736 118.511C61.2194 123.799 69.5876 127.041 78.3573 127.88C87.1269 128.719 95.958 127.122 103.879 123.266C111.799 119.409 118.503 113.442 123.251 106.022L136.695 114.624Z" fill="#6F84E1" fill-opacity="0.64"/>
</g>
<defs>
<filter id="filter0_d_1448_8827" x="17.0723" y="16.3687" width="131.69" height="131.69" filterUnits="userSpaceOnUse" color-interpolation-filters="sRGB">
<feFlood flood-opacity="0" result="BackgroundImageFix"/>
<feColorMatrix in="SourceAlpha" type="matrix" values="0 0 0 0 0 0 0 0 0 0 0 0 0 0 0 0 0 0 127 0" result="hardAlpha"/>
<feOffset dy="2"/>
<feGaussianBlur stdDeviation="1"/>
<feComposite in2="hardAlpha" operator="out"/>
<feColorMatrix type="matrix" values="0 0 0 0 0 0 0 0 0 0 0 0 0 0 0 0 0 0 0.25 0"/>
<feBlend mode="normal" in2="BackgroundImageFix" result="effect1_dropShadow_1448_8827"/>
<feBlend mode="normal" in="SourceGraphic" in2="effect1_dropShadow_1448_8827" result="shape"/>
</filter>
</defs>
</svg>
