<svg width="148" height="99" viewBox="0 0 148 99" fill="none" xmlns="http://www.w3.org/2000/svg">
<g filter="url(#filter0_d_1448_8828)">
<path d="M142.523 102.07C136.591 115.876 125.98 127.147 112.556 133.899C99.1326 140.652 83.7575 142.454 69.1365 138.987C54.5155 135.521 41.5856 127.009 32.6223 114.948C23.659 102.888 19.2366 88.0531 20.1335 73.0536L36.0837 74.0074C35.4113 85.2529 38.7269 96.3752 45.4469 105.417C52.1669 114.459 61.8608 120.841 72.8225 123.44C83.7843 126.038 95.3114 124.688 105.375 119.625C115.439 114.562 123.395 106.112 127.843 95.7617L142.523 102.07Z" fill="#6F84E1"/>
<path d="M20.1335 73.0536C20.9625 59.19 26.2895 45.9748 35.3068 35.4118C44.3241 24.8489 56.5399 17.5144 70.1017 14.5205L73.5424 30.1065C63.3711 32.3519 54.2092 37.8528 47.4463 45.775C40.6833 53.6972 36.688 63.6086 36.0663 74.0063L20.1335 73.0536Z" fill="#6F84E1" fill-opacity="0.3"/>
<path d="M70.1017 14.5205C81.5718 11.9884 93.5181 12.6697 104.626 16.4893C115.734 20.309 125.573 27.119 133.06 36.1699C140.547 45.2208 145.391 56.1618 147.061 67.7887C148.731 79.4156 147.161 91.2779 142.523 102.07L127.859 95.7686C131.337 87.6745 132.514 78.7778 131.262 70.0576C130.01 61.3374 126.376 53.1317 120.761 46.3435C115.146 39.5553 107.766 34.4478 99.4356 31.5831C91.1047 28.7183 82.145 28.2074 73.5424 30.1065L70.1017 14.5205Z" fill="#6F84E1" fill-opacity="0.75"/>
</g>
<defs>
<filter id="filter0_d_1448_8828" x="18.0195" y="13.0195" width="131.69" height="131.69" filterUnits="userSpaceOnUse" color-interpolation-filters="sRGB">
<feFlood flood-opacity="0" result="BackgroundImageFix"/>
<feColorMatrix in="SourceAlpha" type="matrix" values="0 0 0 0 0 0 0 0 0 0 0 0 0 0 0 0 0 0 127 0" result="hardAlpha"/>
<feOffset dy="2"/>
<feGaussianBlur stdDeviation="1"/>
<feComposite in2="hardAlpha" operator="out"/>
<feColorMatrix type="matrix" values="0 0 0 0 0 0 0 0 0 0 0 0 0 0 0 0 0 0 0.25 0"/>
<feBlend mode="normal" in2="BackgroundImageFix" result="effect1_dropShadow_1448_8828"/>
<feBlend mode="normal" in="SourceGraphic" in2="effect1_dropShadow_1448_8828" result="shape"/>
</filter>
</defs>
</svg>
