<svg width="40" height="40" viewBox="0 0 40 40" fill="none" xmlns="http://www.w3.org/2000/svg">
<path d="M0 12.8C0 8.31958 0 6.07937 0.871948 4.36808C1.63893 2.86278 2.86278 1.63893 4.36808 0.871948C6.07937 0 8.31958 0 12.8 0H27.2C31.6804 0 33.9206 0 35.6319 0.871948C37.1372 1.63893 38.3611 2.86278 39.1281 4.36808C40 6.07937 40 8.31958 40 12.8V27.2C40 31.6804 40 33.9206 39.1281 35.6319C38.3611 37.1372 37.1372 38.3611 35.6319 39.1281C33.9206 40 31.6804 40 27.2 40H12.8C8.31958 40 6.07937 40 4.36808 39.1281C2.86278 38.3611 1.63893 37.1372 0.871948 35.6319C0 33.9206 0 31.6804 0 27.2V12.8Z" fill="#D4D9F9"/>
<path d="M21.273 18.2689C21.1596 18.2666 21.047 18.2875 20.9421 18.3303C20.8373 18.3731 20.7425 18.4369 20.6638 18.5176C20.5851 18.5983 20.5241 18.6943 20.4847 18.7995C20.4452 18.9046 20.4282 19.0167 20.4347 19.1287C20.4347 19.3533 20.5249 19.5687 20.6855 19.7275C20.8461 19.8863 21.0639 19.9756 21.291 19.9756C21.5181 19.9756 21.7359 19.8863 21.8965 19.7275C22.057 19.5687 22.1473 19.3533 22.1473 19.1287C22.1532 19.0139 22.1345 18.8991 22.0926 18.7918C22.0507 18.6845 21.9864 18.5871 21.904 18.506C21.8215 18.4249 21.7227 18.3619 21.614 18.321C21.5053 18.2802 21.3891 18.2624 21.273 18.2689Z" fill="#031786"/>
<path d="M29.7353 12.2507C29.3345 11.8531 28.8581 11.5379 28.3336 11.3233C27.809 11.1086 27.2467 10.9987 26.679 11H13.321C12.7534 10.9995 12.1913 11.1098 11.6668 11.3243C11.1424 11.5389 10.6659 11.8537 10.2645 12.2506C9.86319 12.6475 9.54493 13.1187 9.32795 13.6374C9.11097 14.156 8.99953 14.7119 9 15.2732V21.6309C8.99953 22.1922 9.11097 22.7481 9.32795 23.2668C9.54493 23.7854 9.86319 24.2567 10.2645 24.6536C10.6659 25.0505 11.1424 25.3652 11.6668 25.5798C12.1913 25.7944 12.7534 25.9046 13.321 25.9041H18.2479L19.6707 28.7656C19.6938 28.8339 19.738 28.8932 19.7971 28.9353C19.8562 28.9774 19.9272 29 20 29C20.0728 29 20.1438 28.9774 20.2029 28.9353C20.262 28.8932 20.3062 28.8339 20.3293 28.7656L21.7521 25.8994H26.679C27.2462 25.8999 27.8079 25.7898 28.332 25.5755C28.8562 25.3612 29.3325 25.0469 29.7338 24.6505C30.135 24.2541 30.4534 23.7834 30.6707 23.2653C30.8879 22.7472 30.9998 22.1918 31 21.6309V15.2732C31.0013 14.7118 30.8902 14.1557 30.6731 13.637C30.4561 13.1182 30.1374 12.6471 29.7353 12.2507ZM13.8479 21.1856C13.6278 21.1949 13.4089 21.15 13.2107 21.0549C13.0125 20.9598 12.8414 20.8175 12.7126 20.6408H12.6886V21.0577H11.3449V15.4556H12.7126V17.5875C12.8586 17.4275 13.0377 17.3005 13.2377 17.2151C13.4377 17.1297 13.654 17.0879 13.8719 17.0924C14.1314 17.1006 14.3866 17.1603 14.6224 17.2679C14.8582 17.3756 15.0697 17.5289 15.2444 17.7189C15.4191 17.9089 15.5534 18.1317 15.6394 18.374C15.7253 18.6163 15.7612 18.8732 15.7449 19.1295C15.7601 19.3884 15.7227 19.6477 15.635 19.8922C15.5474 20.1366 15.4111 20.3612 15.2344 20.5528C15.0576 20.7443 14.8439 20.899 14.6058 21.0077C14.3677 21.1164 14.11 21.1769 13.8479 21.1856ZM18.1425 21.0553H16.8251V17.8267C16.8251 17.2274 16.7198 16.7063 16.1928 16.6281V15.3253C17.3521 15.3253 18.1425 16.1544 18.1425 17.5662V21.0553ZM21.3042 21.1595C21.0169 21.1851 20.7274 21.1513 20.4541 21.0601C20.1808 20.969 19.9297 20.8225 19.7168 20.6301C19.5039 20.4377 19.3339 20.2035 19.2175 19.9425C19.1012 19.6815 19.0411 19.3994 19.0411 19.1141C19.0411 18.8289 19.1012 18.5468 19.2175 18.2858C19.3339 18.0248 19.5039 17.7906 19.7168 17.5982C19.9297 17.4057 20.1808 17.2593 20.4541 17.1681C20.7274 17.077 21.0169 17.0431 21.3042 17.0687C21.5916 17.0482 21.8802 17.086 22.1523 17.1798C22.4244 17.2736 22.6742 17.4215 22.8864 17.6142C23.0986 17.807 23.2687 18.0407 23.3863 18.3008C23.5039 18.561 23.5664 18.8422 23.5701 19.1272C23.5684 19.4117 23.507 19.6928 23.3898 19.9527C23.2726 20.2125 23.1021 20.4455 22.8891 20.6367C22.6761 20.828 22.4252 20.9735 22.1524 21.0639C21.8796 21.1543 21.5907 21.1877 21.3042 21.1619V21.1595ZM28.576 20.7166C28.576 22.3321 27.7593 23.1398 26.3365 23.1398H26.073V21.9175H26.3365C27.0479 21.9175 27.2587 21.4746 27.2587 20.8232V20.6408C27.1106 20.8069 26.928 20.9394 26.7234 21.0293C26.5188 21.1192 26.2969 21.1645 26.073 21.1619C25.8203 21.1595 25.5707 21.1062 25.3393 21.0055C25.108 20.9047 24.8998 20.7585 24.7273 20.5758C24.5548 20.393 24.4217 20.1775 24.336 19.9424C24.2503 19.7072 24.2138 19.4572 24.2287 19.2077C24.2112 18.9447 24.2476 18.681 24.3357 18.4323C24.4238 18.1835 24.5618 17.955 24.7415 17.7603C24.9211 17.5656 25.1386 17.4089 25.381 17.2994C25.6234 17.1899 25.8857 17.13 26.1521 17.1232C26.3665 17.1068 26.5815 17.1463 26.7757 17.2377C26.9699 17.3292 27.1364 17.4694 27.2587 17.6443H27.285V17.2274L28.576 17.2535V20.7166Z" fill="#031786"/>
<path d="M26.4683 18.2432C26.3526 18.2375 26.2369 18.2557 26.1288 18.2969C26.0206 18.3381 25.9224 18.4012 25.8405 18.4822C25.7586 18.5633 25.6947 18.6604 25.6531 18.7673C25.6115 18.8743 25.593 18.9886 25.5988 19.1031C25.5909 19.218 25.6079 19.3333 25.6488 19.4412C25.6896 19.5491 25.7534 19.6471 25.8358 19.7286C25.9182 19.8101 26.0173 19.8731 26.1264 19.9136C26.2355 19.954 26.3521 19.9708 26.4683 19.9629C26.5828 19.9696 26.6975 19.9517 26.8044 19.9104C26.9112 19.8691 27.0078 19.8054 27.0875 19.7237C27.1671 19.642 27.2279 19.5443 27.2658 19.4371C27.3036 19.33 27.3175 19.216 27.3066 19.1031C27.3153 18.9906 27.2999 18.8776 27.2612 18.7714C27.2226 18.6652 27.1617 18.5684 27.0825 18.4871C27.0034 18.4059 26.9077 18.3422 26.8018 18.3002C26.6959 18.2581 26.5823 18.2387 26.4683 18.2432Z" fill="#031786"/>
<path d="M13.5318 19.9892C14.012 19.9892 14.4013 19.6043 14.4013 19.1294C14.4013 18.6545 14.012 18.2695 13.5318 18.2695C13.0516 18.2695 12.6624 18.6545 12.6624 19.1294C12.6624 19.6043 13.0516 19.9892 13.5318 19.9892Z" fill="#031786"/>
</svg>
