<svg width="22" height="17" viewBox="0 0 22 17" fill="none" xmlns="http://www.w3.org/2000/svg">
<path d="M19.0527 16L4.05273 1M8.85273 6.94157C8.47932 7.35326 8.25273 7.89403 8.25273 8.48631C8.25273 9.77609 9.32725 10.8217 10.6527 10.8217C11.2639 10.8217 11.8217 10.5994 12.2454 10.2334M19.0915 10.8217C19.9178 9.58482 20.2527 8.57613 20.2527 8.57613C20.2527 8.57613 18.0681 1.6 10.6527 1.6C10.2364 1.6 9.83661 1.62199 9.45273 1.66349M16.0527 13.8494C14.6753 14.7281 12.9021 15.3495 10.6527 15.3127C3.32966 15.193 1.05273 8.57613 1.05273 8.57613C1.05273 8.57613 2.11059 5.19808 5.25273 3.14332" stroke="#8A8D92" stroke-width="2" stroke-linecap="round"/>
</svg>
