<svg width="22" height="16" viewBox="0 0 22 16" fill="none" xmlns="http://www.w3.org/2000/svg">
<path d="M1.06251 8.34738C0.979165 8.12287 0.979165 7.8759 1.06251 7.65138C1.87421 5.68324 3.25202 4.00042 5.02128 2.81628C6.79053 1.63214 8.87155 1 11.0005 1C13.1295 1 15.2105 1.63214 16.9797 2.81628C18.749 4.00042 20.1268 5.68324 20.9385 7.65138C21.0218 7.8759 21.0218 8.12287 20.9385 8.34738C20.1268 10.3155 18.749 11.9983 16.9797 13.1825C15.2105 14.3666 13.1295 14.9988 11.0005 14.9988C8.87155 14.9988 6.79053 14.3666 5.02128 13.1825C3.25202 11.9983 1.87421 10.3155 1.06251 8.34738Z" stroke="#8A8D92" stroke-width="2" stroke-linecap="round" stroke-linejoin="round"/>
<path d="M11.001 11C12.6578 11 14.001 9.65685 14.001 8C14.001 6.34315 12.6578 5 11.001 5C9.34412 5 8.00098 6.34315 8.00098 8C8.00098 9.65685 9.34412 11 11.001 11Z" stroke="#8A8D92" stroke-width="2" stroke-linecap="round" stroke-linejoin="round"/>
</svg>
