<svg width="48" height="48" viewBox="0 0 48 48" fill="none" xmlns="http://www.w3.org/2000/svg">
<path d="M6 40V8C6 6.40871 6.6326 4.88303 7.75781 3.75781C8.88303 2.6326 10.4087 2 12 2H28V2.00098C28.8962 1.99942 29.7842 2.1739 30.6123 2.5166C31.4418 2.85993 32.1954 3.36403 32.8291 4H32.8281L39.999 11.1709C40.635 11.8046 41.1401 12.5582 41.4834 13.3877C41.8261 14.2158 42.0015 15.1038 42 16V26C42 27.1046 41.1046 28 40 28C38.8954 28 38 27.1046 38 26V15.9951C38.0009 15.6255 37.9284 15.2595 37.7871 14.918C37.6458 14.5765 37.4385 14.2658 37.1768 14.0049L29.9951 6.82324C29.7342 6.56148 29.4235 6.35421 29.082 6.21289C28.7405 6.07161 28.3745 5.99909 28.0049 6H12C11.4696 6 10.961 6.21087 10.5859 6.58594C10.2109 6.96101 10 7.46957 10 8V40C10 40.5304 10.2109 41.039 10.5859 41.4141C10.961 41.7891 11.4696 42 12 42H22C23.1046 42 24 42.8954 24 44C24 45.1046 23.1046 46 22 46H12C10.4087 46 8.88303 45.3674 7.75781 44.2422C6.6326 43.117 6 41.5913 6 40Z" fill="#A5B8F1"/>
<path d="M38.5859 32.5859C39.367 31.8049 40.633 31.8049 41.4141 32.5859C42.1951 33.367 42.1951 34.633 41.4141 35.4141L37.8281 39L41.4141 42.5859C42.1951 43.367 42.1951 44.633 41.4141 45.4141C40.633 46.1951 39.367 46.1951 38.5859 45.4141L35 41.8281L31.4141 45.4141C30.633 46.1951 29.367 46.1951 28.5859 45.4141C27.8049 44.633 27.8049 43.367 28.5859 42.5859L32.1719 39L28.5859 35.4141C27.8049 34.633 27.8049 33.367 28.5859 32.5859C29.367 31.8049 30.633 31.8049 31.4141 32.5859L35 36.1719L38.5859 32.5859ZM26 14V4C26 2.89543 26.8954 2 28 2C29.1046 2 30 2.89543 30 4V14H40C41.1046 14 42 14.8954 42 16C42 17.1046 41.1046 18 40 18H30C28.9391 18 27.922 17.5783 27.1719 16.8281C26.4217 16.078 26 15.0609 26 14Z" fill="#A5B8F1"/>
</svg>
