<svg width="40" height="40" viewBox="0 0 40 40" fill="none" xmlns="http://www.w3.org/2000/svg">
<path d="M0 12.8C0 8.31958 0 6.07937 0.871948 4.36808C1.63893 2.86278 2.86278 1.63893 4.36808 0.871948C6.07937 0 8.31958 0 12.8 0H27.2C31.6804 0 33.9206 0 35.6319 0.871948C37.1372 1.63893 38.3611 2.86278 39.1281 4.36808C40 6.07937 40 8.31958 40 12.8V27.2C40 31.6804 40 33.9206 39.1281 35.6319C38.3611 37.1372 37.1372 38.3611 35.6319 39.1281C33.9206 40 31.6804 40 27.2 40H12.8C8.31958 40 6.07937 40 4.36808 39.1281C2.86278 38.3611 1.63893 37.1372 0.871948 35.6319C0 33.9206 0 31.6804 0 27.2V12.8Z" fill="#D4D9F9"/>
<path d="M25 10H15C12.2386 10 10 12.2386 10 15V25C10 27.7614 12.2386 30 15 30H25C27.7614 30 30 27.7614 30 25V15C30 12.2386 27.7614 10 25 10Z" fill="#031786"/>
<path d="M24 19.37C24.1234 20.2022 23.9813 21.0522 23.5938 21.799C23.2063 22.5458 22.5931 23.1514 21.8416 23.5297C21.0901 23.9079 20.2384 24.0396 19.4078 23.9059C18.5771 23.7723 17.8098 23.3801 17.2148 22.7852C16.6199 22.1902 16.2277 21.4229 16.0941 20.5922C15.9604 19.7616 16.0921 18.9099 16.4703 18.1584C16.8486 17.4069 17.4542 16.7937 18.201 16.4062C18.9478 16.0187 19.7978 15.8766 20.63 16C21.4789 16.1259 22.2649 16.5215 22.8717 17.1283C23.4785 17.7351 23.8741 18.5211 24 19.37Z" fill="#031786"/>
<path d="M25.5 14.5H25.51M15 10H25C27.7614 10 30 12.2386 30 15V25C30 27.7614 27.7614 30 25 30H15C12.2386 30 10 27.7614 10 25V15C10 12.2386 12.2386 10 15 10ZM24 19.37C24.1234 20.2022 23.9813 21.0522 23.5938 21.799C23.2063 22.5458 22.5931 23.1514 21.8416 23.5297C21.0901 23.9079 20.2384 24.0396 19.4078 23.9059C18.5771 23.7723 17.8098 23.3801 17.2148 22.7852C16.6199 22.1902 16.2277 21.4229 16.0941 20.5922C15.9604 19.7616 16.0921 18.9099 16.4703 18.1584C16.8486 17.4069 17.4542 16.7937 18.201 16.4062C18.9478 16.0187 19.7978 15.8766 20.63 16C21.4789 16.1259 22.2649 16.5215 22.8717 17.1283C23.4785 17.7351 23.8741 18.5211 24 19.37Z" stroke="#D4D9F9" stroke-width="2" stroke-linecap="round" stroke-linejoin="round"/>
</svg>
