<svg width="48" height="48" viewBox="0 0 48 48" fill="none" xmlns="http://www.w3.org/2000/svg">
<path d="M8.79581 22.3551C9.32746 26.0081 11.1566 29.3475 13.9485 31.7626C16.7404 34.1776 20.3085 35.5066 24 35.5066M24 35.5066C27.6915 35.5066 31.2596 34.1776 34.0515 31.7626C36.8435 29.3475 38.6726 26.0081 39.2042 22.3551M24 35.5066V43.2008M24.0022 4.80078C22.2563 4.80078 20.5819 5.49433 19.3474 6.72886C18.1129 7.96338 17.4193 9.63776 17.4193 11.3836V20.1608C17.4193 21.9067 18.1129 23.581 19.3474 24.8156C20.5819 26.0501 22.2563 26.7436 24.0022 26.7436C25.7481 26.7436 27.4225 26.0501 28.657 24.8156C29.8915 23.581 30.5851 21.9067 30.5851 20.1608V11.3836C30.5851 9.63776 29.8915 7.96338 28.657 6.72886C27.4225 5.49433 25.7481 4.80078 24.0022 4.80078Z" stroke="#0A0A0A" stroke-width="2" stroke-linecap="round" stroke-linejoin="round"/>
</svg>
