<svg width="100" height="100" viewBox="0 0 100 100" fill="none" xmlns="http://www.w3.org/2000/svg">
<path d="M0 50C0 22.3858 22.3858 0 50 0C77.6142 0 100 22.3858 100 50C100 77.6142 77.6142 100 50 100C22.3858 100 0 77.6142 0 50Z" fill="#F0F0F3"/>
<path d="M68 32.5H32C30.8954 32.5 30 33.3954 30 34.5V40.5C30 41.6046 30.8954 42.5 32 42.5H68C69.1046 42.5 70 41.6046 70 40.5V34.5C70 33.3954 69.1046 32.5 68 32.5Z" stroke="#A5B8F1" stroke-width="4" stroke-linecap="round" stroke-linejoin="round"/>
<path d="M34 42.5V64.5C34 65.5609 34.4214 66.5783 35.1716 67.3284C35.9217 68.0786 36.9391 68.5 38 68.5H62C63.0609 68.5 64.0783 68.0786 64.8284 67.3284C65.5786 66.5783 66 65.5609 66 64.5V42.5M45 60.5L55 50.5M45 50.5L55 60.5" stroke="#A5B8F1" stroke-width="4" stroke-linecap="round" stroke-linejoin="round"/>
</svg>
