<svg width="93" height="26" viewBox="0 0 93 26" fill="none" xmlns="http://www.w3.org/2000/svg">
<path d="M7.93753 3.6267V10.8173C9.67736 9.40273 10.9167 8.86049 12.2513 8.86049C14.5155 8.86049 15.5165 10.1336 15.5165 12.6562V20.3654H12.0607V13.2927C12.0607 12.4911 11.7509 12.0904 10.9405 12.0904C10.2494 12.0904 9.29603 12.6562 7.93753 13.7642V20.3654H4.48172V3.6267H7.93753Z" fill="#E5E8FA"/>
<path d="M24.3886 6.73869C22.8394 6.73869 21.9338 6.03141 21.9338 4.71118C21.9338 3.50882 22.8633 2.6601 24.4124 2.6601C26.0093 2.6601 26.8911 3.36737 26.8911 4.71118C26.8911 6.00784 25.9139 6.73869 24.3886 6.73869ZM19.0023 17.4892H22.7203V11.9961H19.479V9.11983H26.1761V17.4892H29.9418V20.3654H19.0023V17.4892Z" fill="#E5E8FA"/>
<path d="M31.9976 14.6837C31.9976 11.4067 34.2855 8.81334 38.504 8.81334C39.5765 8.81334 40.6252 9.02552 41.6023 9.44989L43.5567 8.97837H43.8188V20.0589C43.8188 23.9018 42.6272 25.5756 38.0512 25.8114L34.1425 26L34.0234 23.1238L37.6937 22.9116C39.6719 22.7937 40.3869 21.9214 40.3869 20.1297V18.7151C39.3382 19.7053 38.1942 20.0589 36.7642 20.0589C34.2379 20.0589 31.9976 18.1493 31.9976 14.6837ZM35.5725 14.4244C35.5725 16.2397 36.645 17.2534 38.2657 17.2534C38.9569 17.2534 39.6242 17.0412 40.3869 16.5226V12.0432C39.791 11.7367 39.2905 11.6424 38.7662 11.6424C36.6927 11.6424 35.5725 12.9391 35.5725 14.4244Z" fill="#E5E8FA"/>
<path d="M50.4268 3.6267V10.8173C52.1666 9.40273 53.4059 8.86049 54.7406 8.86049C57.0048 8.86049 58.0057 10.1336 58.0057 12.6562V20.3654H54.5499V13.2927C54.5499 12.4911 54.2401 12.0904 53.4298 12.0904C52.7386 12.0904 51.7853 12.6562 50.4268 13.7642V20.3654H46.971V3.6267H50.4268Z" fill="#E5E8FA"/>
<path d="M60.9911 20.3654V2.87228H64.709V20.3654H60.9911Z" fill="#E5E8FA"/>
<path d="M73.2361 20.7191C69.6373 20.7191 67.0871 18.3143 67.0871 14.7544C67.0871 11.3124 69.6611 8.76619 73.3314 8.76619C76.9303 8.76619 79.4804 11.1945 79.4804 14.7308C79.4804 18.1965 76.9064 20.7191 73.2361 20.7191ZM73.2838 17.89C74.8806 17.89 75.9054 16.9469 75.9054 14.7544C75.9054 12.6562 74.9521 11.5953 73.2838 11.5953C71.7108 11.5953 70.6621 12.5383 70.6621 14.7308C70.6621 16.8526 71.6154 17.89 73.2838 17.89Z" fill="#E5E8FA"/>
<path d="M81.1787 14.6837C81.1787 11.4067 83.4667 8.81334 87.6852 8.81334C88.7577 8.81334 89.8064 9.02552 90.7835 9.44989L92.7378 8.97837H93V20.0589C93 23.9018 91.8083 25.5756 87.2324 25.8114L83.3237 26L83.2045 23.1238L86.8749 22.9116C88.853 22.7937 89.568 21.9214 89.568 20.1297V18.7151C88.5194 19.7053 87.3754 20.0589 85.9454 20.0589C83.419 20.0589 81.1787 18.1493 81.1787 14.6837ZM84.7537 14.4244C84.7537 16.2397 85.8262 17.2534 87.4469 17.2534C88.138 17.2534 88.8054 17.0412 89.568 16.5226V12.0432C88.9722 11.7367 88.4717 11.6424 87.9474 11.6424C85.8739 11.6424 84.7537 12.9391 84.7537 14.4244Z" fill="#E5E8FA"/>
<path d="M1.96953 8.79312C1.02139 8.79296 0.547322 8.79288 0.312239 8.60265C0.107956 8.43734 -0.00725065 8.18765 0.000354194 7.92668C0.00910562 7.62637 0.319662 7.27205 0.940774 6.56342L5.54244 1.31334C6.28183 0.469774 6.65152 0.0479901 6.97323 0.00693149C7.25194 -0.0286393 7.53043 0.0741581 7.71745 0.281638C7.93333 0.521129 7.93333 1.07937 7.93333 2.19586V7.44671C7.93333 7.91834 7.93333 8.15415 7.84054 8.33428C7.75891 8.49273 7.62867 8.62154 7.46849 8.70225C7.28638 8.79401 7.04798 8.79397 6.5712 8.79389L1.96953 8.79312Z" fill="#E5E8FA"/>
</svg>
