<svg width="40" height="40" viewBox="0 0 40 40" fill="none" xmlns="http://www.w3.org/2000/svg">
<path d="M0 12.8C0 8.31958 0 6.07937 0.871948 4.36808C1.63893 2.86278 2.86278 1.63893 4.36808 0.871948C6.07937 0 8.31958 0 12.8 0H27.2C31.6804 0 33.9206 0 35.6319 0.871948C37.1372 1.63893 38.3611 2.86278 39.1281 4.36808C40 6.07937 40 8.31958 40 12.8V27.2C40 31.6804 40 33.9206 39.1281 35.6319C38.3611 37.1372 37.1372 38.3611 35.6319 39.1281C33.9206 40 31.6804 40 27.2 40H12.8C8.31958 40 6.07937 40 4.36808 39.1281C2.86278 38.3611 1.63893 37.1372 0.871948 35.6319C0 33.9206 0 31.6804 0 27.2V12.8Z" fill="#D4D9F9"/>
<path fill-rule="evenodd" clip-rule="evenodd" d="M9.57495 14.1932C8.80835 17.6922 8.80835 21.3077 9.57495 24.8067C9.67568 25.162 9.87029 25.4859 10.1397 25.7464C10.409 26.0069 10.7439 26.1951 11.1113 26.2926C16.997 27.2358 23.003 27.2358 28.8887 26.2926C29.2561 26.1951 29.591 26.0069 29.8603 25.7464C30.1297 25.4859 30.3243 25.162 30.425 24.8067C31.1916 21.3077 31.1916 17.6922 30.425 14.1932C30.3243 13.8378 30.1297 13.514 29.8603 13.2535C29.591 12.9929 29.2561 12.8047 28.8887 12.7073C23.003 11.7642 16.997 11.7642 11.1113 12.7073C10.7439 12.8047 10.409 12.9929 10.1397 13.2535C9.87029 13.514 9.67568 13.8378 9.57495 14.1932ZM23.2921 19.4999L17.8053 22.684V16.3159L23.2921 19.4999Z" fill="#031786"/>
</svg>
